<svg width="164" height="120" viewBox="0 0 164 120" fill="none" xmlns="http://www.w3.org/2000/svg">
<rect opacity="0.8" width="164" height="120" rx="20" fill="white" fill-opacity="0.7"/>
<path d="M18.8818 15.165C17.5459 15.165 16.4473 15.8242 15.9199 16.9141H15.7617V15.3232H13.2832V28.208H15.8408V23.5234H15.999C16.4736 24.543 17.5371 25.1494 18.9258 25.1494C21.3516 25.1494 22.8369 23.2686 22.8369 20.1572C22.8369 17.0371 21.334 15.165 18.8818 15.165ZM18.0117 23.084C16.6582 23.084 15.8145 21.9766 15.8145 20.166C15.8145 18.3555 16.6582 17.2393 18.0205 17.2393C19.3828 17.2393 20.209 18.3379 20.209 20.1572C20.209 21.9854 19.3916 23.084 18.0117 23.084ZM29.2178 25.2021C32.1973 25.2021 33.9902 23.3213 33.9902 20.1572C33.9902 17.0195 32.1709 15.1123 29.2178 15.1123C26.2646 15.1123 24.4453 17.0283 24.4453 20.1572C24.4453 23.3125 26.2383 25.2021 29.2178 25.2021ZM29.2178 23.1807C27.8467 23.1807 27.0732 22.0732 27.0732 20.1572C27.0732 18.2588 27.8555 17.1426 29.2178 17.1426C30.5713 17.1426 31.3623 18.2588 31.3623 20.1572C31.3623 22.0732 30.5801 23.1807 29.2178 23.1807ZM37.3828 13.8379C38.1738 13.8379 38.8242 13.2051 38.8242 12.4141C38.8242 11.6143 38.1738 10.9814 37.3828 10.9814C36.5918 10.9814 35.9326 11.6143 35.9326 12.4141C35.9326 13.2051 36.5918 13.8379 37.3828 13.8379ZM36.0996 25H38.6572V15.3232H36.0996V25ZM41.25 25H43.8076V19.4014C43.8076 18.0918 44.5371 17.248 45.7236 17.248C46.9365 17.248 47.5078 17.96 47.5078 19.3223V25H50.0654V18.7422C50.0654 16.4307 48.9053 15.1123 46.752 15.1123C45.3193 15.1123 44.335 15.7891 43.8867 16.8789H43.7285V15.3232H41.25V25ZM53.2822 13.0117V15.4111H51.7705V17.3535H53.2822V22.3896C53.2822 24.2705 54.2139 25.0352 56.5693 25.0352C57.0615 25.0352 57.5361 24.9824 57.8525 24.9209V23.0312C57.6064 23.0576 57.4307 23.0752 57.0967 23.0752C56.2266 23.0752 55.8398 22.6709 55.8398 21.8008V17.3535H57.8525V15.4111H55.8398V13.0117H53.2822ZM67.6963 25H70.3506V12.3174H67.7051L64.4268 14.5938V16.9844L67.5381 14.8223H67.6963V25Z" fill="#00CEC3"/>
<path d="M69.72 51.95L68.34 51.81C68.32 52.33 68.21 52.93 68.07 53.48C67.76 53.51 67.46 53.52 67.16 53.52C66.79 53.52 66.26 53.5 65.83 53.45L65.92 54.61C66.35 54.64 66.76 54.65 67.17 54.65C67.34 54.65 67.51 54.65 67.69 54.64C67.25 55.72 66.44 57.19 65.65 58.17L66.86 58.79C67.67 57.66 68.52 55.91 69 54.51C69.67 54.41 70.29 54.28 70.75 54.16L70.71 53C70.32 53.12 69.85 53.23 69.36 53.32C69.51 52.78 69.64 52.27 69.72 51.95ZM69.2 58.87C69.2 58.52 69.57 58.26 70.15 58.26C70.43 58.26 70.7 58.3 70.96 58.36C70.96 58.44 70.96 58.5 70.96 58.56C70.96 59.11 70.75 59.49 70.06 59.49C69.51 59.49 69.2 59.24 69.2 58.87ZM72.06 55.06H70.81C70.83 55.67 70.88 56.56 70.92 57.3C70.69 57.28 70.47 57.26 70.23 57.26C68.84 57.26 68.02 58.01 68.02 58.99C68.02 60.09 69 60.64 70.24 60.64C71.66 60.64 72.17 59.92 72.17 58.99C72.17 58.96 72.17 58.92 72.17 58.89C72.72 59.22 73.17 59.64 73.52 59.96L74.19 58.89C73.68 58.43 72.98 57.93 72.12 57.61C72.1 57.11 72.07 56.63 72.06 56.34C72.05 55.9 72.03 55.48 72.06 55.06ZM73.78 55.59L74.49 54.54C73.98 54.17 72.74 53.49 72.02 53.18L71.38 54.17C72.06 54.48 73.2 55.13 73.78 55.59ZM77.84 58.87C77.84 58.53 78.23 58.25 78.94 58.25C79.22 58.25 79.49 58.28 79.76 58.32C79.77 58.5 79.77 58.64 79.77 58.75C79.77 59.33 79.42 59.48 78.89 59.48C78.2 59.48 77.84 59.25 77.84 58.87ZM80.97 51.91H79.62C79.66 52.1 79.68 52.41 79.68 52.6C79.68 52.72 79.68 52.88 79.68 53.07C79.55 53.07 79.42 53.07 79.29 53.07C78.68 53.07 77.54 52.97 76.82 52.85L76.85 53.99C77.51 54.08 78.67 54.17 79.3 54.17C79.42 54.17 79.54 54.17 79.67 54.17C79.66 54.51 79.66 54.87 79.66 55.2C79.5 55.2 79.34 55.2 79.18 55.2C78.65 55.2 77.42 55.13 76.77 55.01L76.78 56.19C77.44 56.27 78.58 56.32 79.16 56.32C79.34 56.32 79.51 56.32 79.68 56.32C79.69 56.62 79.7 56.94 79.72 57.25C79.52 57.23 79.31 57.22 79.1 57.22C77.56 57.22 76.63 57.93 76.63 58.94C76.63 60 77.47 60.61 79.07 60.61C80.39 60.61 81.04 59.95 81.04 59.1C81.04 58.99 81.04 58.87 81.03 58.73C81.83 59.09 82.51 59.62 83.05 60.12L83.77 59C83.19 58.52 82.23 57.85 80.97 57.49C80.94 57.09 80.92 56.68 80.9 56.3C81.86 56.27 82.64 56.2 83.54 56.1L83.55 54.92C82.74 55.03 81.89 55.11 80.88 55.16C80.88 54.85 80.88 54.48 80.88 54.13C81.85 54.08 82.76 53.99 83.42 53.91L83.43 52.76C82.55 52.91 81.72 52.99 80.9 53.03C80.9 52.87 80.9 52.72 80.91 52.62C80.92 52.36 80.94 52.11 80.97 51.91ZM88.12 51.89L87.93 53.05C89.12 53.25 90.99 53.47 92.04 53.55L92.2 52.38C91.16 52.31 89.24 52.1 88.12 51.89ZM92.55 55.07L91.82 54.24C91.71 54.28 91.44 54.33 91.25 54.35C90.42 54.46 88.15 54.56 87.68 54.56C87.31 54.57 86.95 54.55 86.72 54.53L86.84 55.91C87.05 55.88 87.35 55.83 87.7 55.8C88.27 55.75 89.47 55.64 90.17 55.62C89.26 56.58 87.21 58.62 86.7 59.14C86.43 59.4 86.19 59.61 86.01 59.76L87.19 60.59C87.88 59.71 88.63 58.89 88.97 58.54C89.21 58.3 89.42 58.14 89.63 58.14C89.83 58.14 90.05 58.27 90.16 58.62C90.23 58.87 90.35 59.34 90.45 59.64C90.7 60.29 91.21 60.5 92.16 60.5C92.68 60.5 93.71 60.43 94.12 60.35L94.2 59.04C93.7 59.14 93.01 59.22 92.24 59.22C91.85 59.22 91.63 59.06 91.54 58.75C91.45 58.49 91.34 58.11 91.25 57.84C91.12 57.47 90.94 57.25 90.65 57.16C90.54 57.12 90.36 57.08 90.27 57.09C90.51 56.83 91.44 55.97 91.9 55.58C92.08 55.43 92.29 55.25 92.55 55.07Z" fill="#9B9B9B"/>
<path d="M35.629 104.22V101.685H40.036V104.22H35.629ZM37.917 96.615C37.449 97.473 36.838 98.279 36.11 98.994C35.564 98.435 34.732 97.785 34.043 97.278C34.264 97.057 34.472 96.836 34.68 96.615H37.917ZM41.648 100.281H37.007C38.307 99.046 39.36 97.525 40.023 95.744L38.957 95.185L38.697 95.263H35.746C35.98 94.925 36.201 94.587 36.396 94.249L34.654 93.924C33.9 95.341 32.47 96.927 30.338 98.058C30.689 98.318 31.196 98.89 31.43 99.267C31.95 98.955 32.431 98.63 32.873 98.279C33.562 98.825 34.342 99.501 34.862 100.073C33.51 101.074 31.937 101.854 30.312 102.322C30.637 102.634 31.027 103.271 31.209 103.7C32.197 103.362 33.172 102.946 34.082 102.426V106.118H35.629V105.611H40.036V106.131H41.648V100.281ZM45.795 102.296V101.451H47.966V102.296H45.795ZM47.966 99.501V100.307H45.795V99.501H47.966ZM49.461 98.201H44.326V106.053H45.795V103.427H47.966V104.584C47.966 104.74 47.914 104.792 47.758 104.792C47.589 104.805 47.069 104.805 46.588 104.779C46.783 105.13 47.004 105.702 47.082 106.092C47.875 106.092 48.473 106.066 48.889 105.845C49.331 105.624 49.461 105.26 49.461 104.597V98.201ZM53.166 104.402C53.166 104.584 53.101 104.636 52.893 104.636C52.672 104.649 51.996 104.649 51.333 104.623C51.567 105.026 51.814 105.663 51.892 106.079C52.828 106.092 53.53 106.053 54.024 105.819C54.544 105.572 54.687 105.195 54.687 104.428V97.967H53.166V104.402ZM51.996 98.331H50.579V103.635H51.996V98.331ZM52.737 95.913C53.062 95.458 53.413 94.951 53.725 94.444L52.048 93.95C51.788 94.548 51.372 95.315 50.982 95.913H47.368L48.083 95.666C47.862 95.172 47.342 94.47 46.874 93.976L45.405 94.483C45.769 94.912 46.146 95.471 46.38 95.913H43.611V97.304H55.376V95.913H52.737ZM62.318 94.574L60.602 94.431C60.576 94.899 60.485 95.406 60.342 95.926C60.134 95.926 59.913 95.926 59.718 95.926C59.055 95.926 58.093 95.874 57.43 95.77V97.291C58.145 97.343 59.094 97.369 59.627 97.369C59.679 97.369 59.731 97.369 59.796 97.369C59.211 98.539 58.288 99.696 56.923 100.957L58.314 101.997C58.756 101.425 59.133 100.957 59.523 100.567C60.017 100.086 60.823 99.67 61.551 99.67C61.915 99.67 62.266 99.787 62.461 100.112C60.979 100.879 59.419 101.919 59.419 103.583C59.419 105.26 60.927 105.754 62.968 105.754C64.19 105.754 65.789 105.65 66.647 105.533L66.699 103.856C65.555 104.077 64.112 104.22 63.007 104.22C61.733 104.22 61.122 104.025 61.122 103.31C61.122 102.66 61.642 102.153 62.617 101.594C62.604 102.166 62.591 102.79 62.552 103.18H64.112C64.099 102.582 64.073 101.62 64.06 100.892C64.853 100.528 65.594 100.242 66.179 100.008C66.621 99.839 67.31 99.579 67.726 99.462L67.076 97.954C66.595 98.201 66.14 98.409 65.633 98.63C65.1 98.864 64.554 99.085 63.878 99.397C63.592 98.734 62.942 98.396 62.149 98.396C61.72 98.396 61.018 98.5 60.68 98.656C60.94 98.279 61.2 97.811 61.421 97.33C62.825 97.291 64.424 97.187 65.659 97.005L65.672 95.497C64.528 95.692 63.228 95.809 61.993 95.874C62.162 95.328 62.253 94.899 62.318 94.574ZM77.021 96.186C76.28 95.614 74.967 94.652 73.914 93.976L72.913 95.107C73.927 95.809 75.253 96.823 76.007 97.447L77.021 96.186ZM70.69 97.499C70.456 99.02 69.962 100.671 69.325 101.789L70.82 102.348C71.47 101.23 71.886 99.41 72.159 97.876L70.69 97.499ZM75.175 104.441C74.512 104.441 74.408 104.35 74.408 103.687V102.894C77.021 100.762 79.062 98.084 80.479 95.367L78.919 94.756C77.931 96.836 76.371 98.994 74.408 100.84V96.914H72.757V102.231C71.704 103.037 70.56 103.739 69.351 104.285C69.663 104.584 70.131 105.156 70.365 105.507C71.197 105.104 72.016 104.636 72.77 104.116C72.861 105.546 73.407 105.988 75.006 105.988H77.281C78.88 105.988 79.335 105.221 79.543 102.881C79.088 102.777 78.399 102.504 78.022 102.231C77.931 104.064 77.814 104.441 77.151 104.441H75.175ZM78.308 99.033C79.075 100.255 79.881 101.919 80.18 102.998L81.662 102.244C81.337 101.178 80.518 99.592 79.699 98.37L78.308 99.033ZM86.849 100.931C86.849 100.242 87.356 99.904 87.837 99.904C88.201 99.904 88.513 100.047 88.695 100.359C88.864 101.503 88.396 101.919 87.85 101.919C87.33 101.919 86.849 101.529 86.849 100.931ZM91.789 94.314L90.723 94.756C91.035 95.224 91.308 95.731 91.568 96.225C91.035 96.225 90.489 96.225 90.008 96.225C90.008 96.069 90.021 95.926 90.021 95.822C90.034 95.614 90.073 94.912 90.112 94.704H88.24C88.266 94.873 88.318 95.315 88.357 95.835C88.37 95.939 88.37 96.069 88.37 96.238C86.615 96.264 84.249 96.316 82.767 96.329L82.806 97.902C84.405 97.811 86.433 97.72 88.396 97.694C88.409 97.98 88.409 98.279 88.409 98.565C88.24 98.539 88.071 98.526 87.889 98.526C86.472 98.526 85.276 99.501 85.276 100.97C85.276 102.543 86.524 103.349 87.525 103.349C87.746 103.349 87.941 103.323 88.123 103.284C87.408 104.064 86.251 104.493 84.938 104.766L86.316 106.157C89.501 105.26 90.502 103.115 90.502 101.412C90.502 100.723 90.333 100.099 90.008 99.605C90.008 99.033 90.008 98.344 89.995 97.681C91.75 97.681 92.985 97.72 93.765 97.759L93.778 96.212C93.388 96.212 92.634 96.212 91.802 96.225L92.699 95.848C92.465 95.393 92.114 94.782 91.789 94.314ZM93.531 93.95L92.452 94.392C92.79 94.86 93.102 95.406 93.362 95.926L94.454 95.471C94.207 94.99 93.856 94.418 93.531 93.95ZM98.12 96.693V101.256H97.223V96.693H98.12ZM99.498 95.263H95.884V103.752H97.223V102.686H99.498V95.263ZM107.493 100.229H104.386V95.952C105.4 95.809 106.349 95.64 107.194 95.406L106.154 94.145C104.581 94.6 102.033 94.925 99.771 95.081C99.94 95.419 100.135 95.991 100.187 96.368C101.032 96.316 101.929 96.251 102.839 96.147V100.229H99.888V101.685H102.839V104.35C102.839 104.571 102.761 104.636 102.527 104.636C102.293 104.649 101.539 104.649 100.824 104.61C101.045 105.026 101.292 105.689 101.37 106.105C102.436 106.118 103.19 106.066 103.684 105.819C104.204 105.585 104.386 105.182 104.386 104.363V101.685H107.493V100.229ZM100.044 97.109C100.486 98.006 100.837 99.215 100.915 100.008L102.28 99.54C102.163 98.734 101.773 97.564 101.305 96.68L100.044 97.109ZM105.933 99.995C106.362 99.228 106.869 98.006 107.311 96.901L105.803 96.485C105.569 97.46 105.101 98.773 104.711 99.618L105.933 99.995ZM113.902 97.798L114.942 98.747C115.475 98.383 116.476 97.577 116.827 97.291L116.437 96.277C115.553 95.731 114.162 95.133 113.083 94.73L112.121 95.926C113.096 96.29 114.149 96.823 114.721 97.2C114.539 97.343 114.214 97.59 113.902 97.798ZM111.692 103.791L111.926 105.507C112.563 105.624 113.317 105.702 114.032 105.702C115.384 105.702 116.619 105.182 116.619 103.44C116.619 102.244 115.852 101.074 114.461 99.683C114.123 99.332 113.785 99.007 113.408 98.63L112.134 99.683C112.563 100.008 113.005 100.398 113.33 100.71C113.915 101.295 114.812 102.465 114.812 103.258C114.812 103.869 114.357 104.103 113.694 104.103C113.07 104.103 112.394 103.999 111.692 103.791ZM118.894 104.792L120.467 103.947C120.077 102.738 119.063 100.762 118.244 99.761L116.84 100.515C117.711 101.594 118.569 103.492 118.894 104.792ZM112.472 102.322L111.497 101.061C110.717 101.893 109.3 102.998 108.182 103.609L109.17 105C110.561 104.155 111.744 103.102 112.472 102.322ZM118.14 96.16L117.113 96.576C117.464 97.083 117.867 97.863 118.14 98.396L119.18 97.941C118.933 97.46 118.478 96.641 118.14 96.16ZM119.687 95.575L118.66 95.991C119.011 96.485 119.44 97.239 119.7 97.785L120.74 97.343C120.506 96.888 120.025 96.056 119.687 95.575ZM126.837 101.659H128.163L128.514 97.213L128.579 95.276H126.421L126.486 97.213L126.837 101.659ZM127.5 105.117C128.15 105.117 128.644 104.649 128.644 103.973C128.644 103.284 128.15 102.816 127.5 102.816C126.85 102.816 126.356 103.284 126.356 103.973C126.356 104.649 126.837 105.117 127.5 105.117Z" fill="#ADADAD"/>
<path d="M103 57.1242C103 67.0448 94.7958 72.7173 84 74.3738L76.1667 82L76 74.3738C65.2042 72.7173 57 67.0448 57 57.1242C57 46.0099 67.2975 37 80 37C92.7025 37 103 46.0099 103 57.1242Z" stroke="#9B9B9B" stroke-width="2"/>
</svg>
