<svg width="89" height="89" viewBox="0 0 89 89" fill="none" xmlns="http://www.w3.org/2000/svg">
<circle cx="44.5" cy="44.5" r="44.5" fill="#00CEC3"/>
<path fill-rule="evenodd" clip-rule="evenodd" d="M61 44.5001C61 46.0713 59.7263 47.3449 58.1552 47.3449H30.8448C29.2737 47.3449 28 46.0713 28 44.5001C28 42.9289 29.2737 41.6553 30.8448 41.6553H58.1552C59.7263 41.6553 61 42.9289 61 44.5001Z" fill="white"/>
<path fill-rule="evenodd" clip-rule="evenodd" d="M44.5 28C46.0711 28 47.3448 29.2737 47.3448 30.8448V58.1552C47.3448 59.7263 46.0711 61 44.5 61C42.9288 61 41.6552 59.7263 41.6552 58.1552V30.8448C41.6552 29.2737 42.9288 28 44.5 28Z" fill="white"/>
</svg>
