<svg width="164" height="120" viewBox="0 0 164 120" fill="none" xmlns="http://www.w3.org/2000/svg">
<rect opacity="0.8" width="164" height="120" rx="20" fill="white" fill-opacity="0.7"/>
<path d="M19.8818 15.165C18.5459 15.165 17.4473 15.8242 16.9199 16.9141H16.7617V15.3232H14.2832V28.208H16.8408V23.5234H16.999C17.4736 24.543 18.5371 25.1494 19.9258 25.1494C22.3516 25.1494 23.8369 23.2686 23.8369 20.1572C23.8369 17.0371 22.334 15.165 19.8818 15.165ZM19.0117 23.084C17.6582 23.084 16.8145 21.9766 16.8145 20.166C16.8145 18.3555 17.6582 17.2393 19.0205 17.2393C20.3828 17.2393 21.209 18.3379 21.209 20.1572C21.209 21.9854 20.3916 23.084 19.0117 23.084ZM30.2178 25.2021C33.1973 25.2021 34.9902 23.3213 34.9902 20.1572C34.9902 17.0195 33.1709 15.1123 30.2178 15.1123C27.2646 15.1123 25.4453 17.0283 25.4453 20.1572C25.4453 23.3125 27.2383 25.2021 30.2178 25.2021ZM30.2178 23.1807C28.8467 23.1807 28.0732 22.0732 28.0732 20.1572C28.0732 18.2588 28.8555 17.1426 30.2178 17.1426C31.5713 17.1426 32.3623 18.2588 32.3623 20.1572C32.3623 22.0732 31.5801 23.1807 30.2178 23.1807ZM38.3828 13.8379C39.1738 13.8379 39.8242 13.2051 39.8242 12.4141C39.8242 11.6143 39.1738 10.9814 38.3828 10.9814C37.5918 10.9814 36.9326 11.6143 36.9326 12.4141C36.9326 13.2051 37.5918 13.8379 38.3828 13.8379ZM37.0996 25H39.6572V15.3232H37.0996V25ZM42.25 25H44.8076V19.4014C44.8076 18.0918 45.5371 17.248 46.7236 17.248C47.9365 17.248 48.5078 17.96 48.5078 19.3223V25H51.0654V18.7422C51.0654 16.4307 49.9053 15.1123 47.752 15.1123C46.3193 15.1123 45.335 15.7891 44.8867 16.8789H44.7285V15.3232H42.25V25ZM54.2822 13.0117V15.4111H52.7705V17.3535H54.2822V22.3896C54.2822 24.2705 55.2139 25.0352 57.5693 25.0352C58.0615 25.0352 58.5361 24.9824 58.8525 24.9209V23.0312C58.6064 23.0576 58.4307 23.0752 58.0967 23.0752C57.2266 23.0752 56.8398 22.6709 56.8398 21.8008V17.3535H58.8525V15.4111H56.8398V13.0117H54.2822ZM65.4795 16.167H67.9404C67.9404 14.9277 68.749 14.0576 70.041 14.0576C71.2803 14.0576 72.001 14.8838 72.001 15.9209C72.001 16.7998 71.6582 17.3799 70.0762 18.918L65.6289 23.2158V25H74.7783V22.8643H69.2061V22.7061L71.8428 20.1924C73.9521 18.1885 74.6025 17.1689 74.6025 15.6836C74.6025 13.5479 72.8799 11.9922 70.1904 11.9922C67.4131 11.9922 65.4795 13.6973 65.4795 16.167Z" fill="#00CEC3"/>
<circle cx="84.5" cy="60.5" r="20.5" stroke="#9B9B9B" stroke-width="2"/>
<path d="M27.472 103.44H29.825V102.348H27.472V101.841H29.773V97.824H27.472V97.317H29.968V98.331H31.151C31.06 100.658 30.748 102.517 29.734 103.921C28.98 103.986 28.213 104.051 27.472 104.103V103.44ZM25.054 100.879V100.294H26.068V100.879H25.054ZM28.486 100.294V100.879H27.472V100.294H28.486ZM27.472 99.371V98.799H28.486V99.371H27.472ZM25.054 98.799H26.068V99.371H25.054V98.799ZM32.659 96.914C32.685 96.056 32.685 95.146 32.685 94.197H31.203C31.203 95.159 31.203 96.056 31.19 96.914H29.968V96.199H27.472V95.562C28.317 95.471 29.123 95.354 29.812 95.211L29.136 94.054C27.706 94.366 25.457 94.587 23.533 94.691C23.676 94.99 23.819 95.471 23.871 95.783C24.573 95.77 25.314 95.731 26.068 95.679V96.199H23.507V97.317H26.068V97.824H23.832V101.841H26.068V102.348H23.78V103.44H26.068V104.22C25.067 104.285 24.157 104.35 23.429 104.402L23.611 105.702C25.015 105.585 26.887 105.39 28.759 105.195C29.097 105.481 29.474 105.91 29.669 106.222C31.853 104.493 32.451 101.815 32.62 98.331H33.79C33.712 102.53 33.582 104.116 33.309 104.467C33.192 104.636 33.062 104.688 32.867 104.688C32.62 104.688 32.126 104.675 31.554 104.623C31.814 105.052 31.983 105.676 32.009 106.105C32.633 106.118 33.231 106.131 33.621 106.053C34.05 105.962 34.349 105.832 34.648 105.403C35.064 104.805 35.168 102.92 35.285 97.603C35.285 97.421 35.298 96.914 35.298 96.914H32.659ZM46.439 103.908H38.587V97.07H37.079V106.131H38.587V105.364H46.439V106.118H47.934V97.07H46.439V103.908ZM44.255 99.605H43.124V98.513H44.255V99.605ZM44.255 101.88H43.124V100.775H44.255V101.88ZM40.667 100.775H41.798V101.88H40.667V100.775ZM40.667 98.513H41.798V99.605H40.667V98.513ZM36.689 94.769V96.212H41.681V97.252H39.406V103.141H45.594V97.252H43.228V96.212H48.324V94.769H36.689ZM55.162 103.31C55.162 102.816 55.656 102.504 56.397 102.504C56.748 102.504 57.099 102.556 57.437 102.647C57.437 102.738 57.437 102.816 57.437 102.881C57.437 103.648 57.164 104.064 56.371 104.064C55.682 104.064 55.162 103.843 55.162 103.31ZM59.023 94.821H57.164C57.216 95.081 57.255 95.484 57.255 95.679C57.255 95.952 57.268 96.485 57.268 97.122C56.969 97.135 56.657 97.135 56.358 97.135C55.578 97.135 54.824 97.096 54.083 97.018V98.565C54.85 98.617 55.591 98.643 56.358 98.643C56.657 98.643 56.969 98.643 57.281 98.63C57.294 99.553 57.346 100.502 57.372 101.308C57.112 101.269 56.826 101.256 56.527 101.256C54.759 101.256 53.641 102.166 53.641 103.479C53.641 104.844 54.759 105.598 56.553 105.598C58.308 105.598 59.01 104.714 59.088 103.466C59.608 103.817 60.128 104.272 60.674 104.779L61.571 103.414C60.947 102.842 60.128 102.179 59.049 101.737C58.997 100.853 58.932 99.813 58.906 98.552C59.621 98.5 60.297 98.422 60.921 98.331V96.706C60.297 96.836 59.621 96.94 58.906 97.005C58.919 96.433 58.932 95.952 58.945 95.666C58.958 95.38 58.984 95.068 59.023 94.821ZM52.679 94.964L50.885 94.808C50.872 95.224 50.807 95.718 50.755 96.082C50.612 97.083 50.222 99.54 50.222 101.503C50.222 103.271 50.469 104.753 50.742 105.663L52.211 105.546C52.198 105.364 52.185 105.143 52.185 105.013C52.185 104.87 52.211 104.584 52.25 104.402C52.406 103.7 52.822 102.374 53.186 101.308L52.393 100.658C52.198 101.1 51.977 101.542 51.808 101.997C51.769 101.737 51.756 101.412 51.756 101.152C51.756 99.852 52.185 96.992 52.38 96.121C52.419 95.887 52.575 95.224 52.679 94.964ZM62.923 101.594C62.819 102.686 62.611 103.843 62.234 104.61C62.572 104.727 63.144 105 63.417 105.169C63.794 104.337 64.067 103.037 64.197 101.815L62.923 101.594ZM65.822 101.88C66.147 102.673 66.485 103.726 66.589 104.389L67.811 103.96C67.655 103.297 67.317 102.283 66.966 101.516L65.822 101.88ZM69.878 96.186C70.125 95.588 70.346 94.964 70.515 94.327L68.929 93.989C68.513 95.627 67.746 97.291 66.784 98.318L66.693 98.162L65.601 98.643C65.757 98.916 65.913 99.228 66.056 99.54L64.743 99.592C65.588 98.539 66.498 97.213 67.226 96.069L65.913 95.523C65.601 96.173 65.185 96.927 64.717 97.655C64.587 97.486 64.431 97.291 64.262 97.109C64.73 96.381 65.263 95.38 65.731 94.483L64.366 94.002C64.145 94.678 63.781 95.549 63.417 96.264C63.313 96.173 63.209 96.082 63.105 95.991L62.377 97.057C62.923 97.577 63.56 98.279 63.937 98.838C63.742 99.124 63.534 99.397 63.339 99.644L62.377 99.683L62.507 101.035L64.431 100.905V106.144H65.796V100.801L66.537 100.749C66.615 101.009 66.68 101.243 66.719 101.451L67.889 100.905C67.746 100.255 67.33 99.293 66.875 98.474C67.265 98.708 67.837 99.098 68.097 99.332C68.487 98.864 68.851 98.292 69.202 97.655H72.79C72.647 102.088 72.452 103.986 72.062 104.389C71.906 104.558 71.763 104.61 71.516 104.61C71.165 104.61 70.424 104.61 69.605 104.532C69.891 104.974 70.099 105.65 70.125 106.092C70.879 106.118 71.685 106.131 72.153 106.053C72.699 105.975 73.037 105.832 73.401 105.338C73.947 104.649 74.129 102.595 74.298 96.901C74.311 96.706 74.311 96.186 74.311 96.186H69.878ZM71.347 102.127C71.074 101.308 70.333 100.112 69.657 99.215L68.422 99.839C69.085 100.775 69.761 102.023 70.008 102.842L71.347 102.127ZM78.0659 100.912H79.2148C80.3447 100.912 81.0303 101.477 81.0303 102.397C81.0303 103.286 80.2876 103.883 79.2339 103.883C78.1738 103.883 77.4565 103.337 77.3867 102.486H75.8188C75.895 104.143 77.2598 105.229 79.2529 105.229C81.2334 105.229 82.7061 104.086 82.7061 102.512C82.7061 101.261 81.9253 100.455 80.6812 100.265V100.157C81.6523 99.8965 82.3442 99.1665 82.3506 98.062C82.3569 96.748 81.2588 95.6118 79.3101 95.6118C77.3232 95.6118 76.0791 96.7354 75.9966 98.3413H77.5327C77.6025 97.4272 78.2246 96.9194 79.2212 96.9194C80.1924 96.9194 80.77 97.5161 80.77 98.2715C80.77 99.103 80.1226 99.687 79.1831 99.687H78.0659V100.912ZM87.7905 105.229C89.9805 105.229 91.2817 103.458 91.2817 100.423C91.2817 97.3828 89.9614 95.6118 87.7905 95.6118C85.6133 95.6118 84.293 97.3828 84.293 100.411C84.293 103.451 85.5942 105.229 87.7905 105.229ZM87.7905 103.902C86.6289 103.902 85.9497 102.696 85.9497 100.411C85.9497 98.1445 86.6416 96.9448 87.7905 96.9448C88.9395 96.9448 89.625 98.1382 89.625 100.411C89.625 102.702 88.9521 103.902 87.7905 103.902ZM104.814 99.787C104.632 98.76 104.112 97.239 103.488 96.082L102.162 96.524C102.747 97.681 103.241 99.254 103.384 100.281L104.814 99.787ZM101.837 94.002H100.29V100.658C100.29 100.801 100.225 100.853 100.082 100.853C99.9133 100.853 99.4323 100.853 98.9773 100.84C99.1853 101.256 99.4063 101.919 99.4583 102.361C100.277 102.361 100.836 102.309 101.265 102.062C101.707 101.802 101.837 101.386 101.837 100.671V94.002ZM98.3533 96.225C98.1453 97.655 97.7163 99.085 97.0403 99.982C97.4173 100.138 98.0673 100.489 98.3663 100.697C99.0293 99.696 99.5493 98.084 99.8353 96.472L98.3533 96.225ZM97.7033 101.152C97.4563 100.866 96.3903 99.735 96.0393 99.449V99.072H97.4303V97.629H96.0393V95.796C96.5983 95.653 97.1183 95.484 97.5863 95.302L96.5593 94.119C95.5583 94.574 93.9593 94.951 92.5293 95.198C92.6983 95.51 92.8803 96.03 92.9583 96.381C93.4653 96.316 93.9983 96.225 94.5443 96.121V97.629H92.6853V99.072H94.3363C93.8553 100.333 93.1403 101.711 92.4123 102.556C92.6593 102.946 92.9843 103.583 93.1273 104.025C93.6343 103.375 94.1283 102.452 94.5443 101.451V106.118H96.0393V101.048C96.3513 101.516 96.6633 102.023 96.8193 102.361L97.7033 101.152ZM102.669 100.411C101.863 103.011 100.134 104.168 97.1443 104.688C97.4693 105.065 97.8333 105.663 97.9763 106.131C101.33 105.312 103.241 103.882 104.177 100.775L102.669 100.411ZM111.028 100.619C111.912 101.581 112.861 102.049 114.096 102.049C115.487 102.049 116.761 101.269 117.632 99.657L116.202 98.877C115.708 99.8 114.967 100.437 114.135 100.437C113.238 100.437 112.757 100.099 112.198 99.501C111.314 98.539 110.365 98.071 109.13 98.071C107.739 98.071 106.465 98.851 105.594 100.463L107.024 101.243C107.518 100.32 108.259 99.683 109.091 99.683C110.001 99.683 110.469 100.034 111.028 100.619ZM121.281 105H122.918V95.8403H121.287L118.894 97.5225V99.0649L121.173 97.4526H121.281V105ZM131.973 94.743C132.688 96.108 133.663 97.538 134.69 98.734H127.67C128.697 97.564 129.607 96.134 130.244 94.639L128.58 94.158C127.8 96.134 126.37 97.928 124.745 99.02C125.122 99.293 125.785 99.917 126.071 100.268C126.422 99.995 126.773 99.683 127.111 99.332V100.242H129.308C129.048 102.14 128.372 103.843 125.434 104.792C125.811 105.143 126.266 105.78 126.461 106.222C129.828 104.961 130.673 102.738 130.998 100.242H133.559C133.442 102.959 133.299 104.116 133.039 104.389C132.896 104.545 132.753 104.571 132.519 104.571C132.194 104.571 131.518 104.558 130.803 104.506C131.076 104.948 131.284 105.598 131.31 106.066C132.077 106.092 132.831 106.092 133.273 106.027C133.78 105.962 134.131 105.832 134.456 105.416C134.911 104.87 135.067 103.336 135.21 99.41V99.319C135.496 99.618 135.769 99.904 136.042 100.151C136.341 99.709 136.939 99.085 137.355 98.76C135.938 97.668 134.313 95.783 133.494 94.132L131.973 94.743ZM143.4 101.659H144.725L145.077 97.213L145.142 95.276H142.984L143.049 97.213L143.4 101.659ZM144.062 105.117C144.713 105.117 145.206 104.649 145.206 103.973C145.206 103.284 144.713 102.816 144.062 102.816C143.413 102.816 142.919 103.284 142.919 103.973C142.919 104.649 143.4 105.117 144.062 105.117Z" fill="#ADADAD"/>
<path d="M75.1203 48.3936C74.7398 48.3936 74.3734 48.5311 74.0867 48.7811C73.4992 49.2943 73.3765 50.1732 73.8226 50.8537L80.9547 60.424C81.0281 60.5436 81.1117 60.6607 81.2094 60.7732C81.6867 61.3217 82.3781 61.635 83.1054 61.635C83.7125 61.635 84.3 61.4146 84.7586 61.0154C85.8031 60.1045 85.9117 58.5123 84.9992 57.4646C84.9023 57.3553 84.7976 57.2553 84.7273 57.2014L76.1515 48.7771C75.8648 48.5303 75.4984 48.3936 75.1203 48.3936Z" stroke="#9B9B9B" stroke-width="2"/>
</svg>
