<svg width="162" height="179" viewBox="0 0 162 179" fill="none" xmlns="http://www.w3.org/2000/svg">
<path d="M17.154 167.966V166.04H12.276V164.312H16.56V162.422H14.31C14.832 161.738 15.444 160.838 16.02 159.92L13.824 159.254C13.482 160.118 12.852 161.306 12.33 162.098L13.248 162.422H9.234L10.188 162.008C9.954 161.216 9.288 160.1 8.622 159.272L6.804 160.028C7.344 160.766 7.848 161.702 8.136 162.422H6.336V164.312H10.134V166.04H5.724V167.966H9.9C9.504 169.262 8.46 170.612 5.724 171.62C6.21 171.98 6.876 172.718 7.146 173.168C9.486 172.142 10.8 170.846 11.52 169.496C12.438 171.26 13.824 172.502 15.858 173.204C16.146 172.646 16.758 171.818 17.208 171.404C15.066 170.846 13.626 169.658 12.834 167.966H17.154ZM5.454 162.386C4.842 161.54 3.528 160.424 2.448 159.668L0.864 160.964C1.926 161.756 3.204 162.944 3.762 163.808L5.454 162.386ZM5.004 166.238H0.846V168.2H2.916V171.998C2.124 172.61 1.224 173.204 0.45 173.654L1.494 175.886C2.484 175.13 3.276 174.428 4.068 173.726C5.238 175.13 6.714 175.634 8.928 175.724C11.07 175.814 14.688 175.778 16.848 175.67C16.956 175.058 17.28 174.014 17.514 173.51C15.12 173.69 11.07 173.744 8.964 173.654C7.092 173.582 5.742 173.096 5.004 171.89V166.238ZM33.876 159.956H25.632V161.63H33.876V159.956ZM22.608 159.29C21.636 161.846 19.98 164.402 18.27 166.022C18.63 166.526 19.188 167.696 19.386 168.2C19.89 167.696 20.394 167.138 20.88 166.508V176.012H22.914V163.412C23.562 162.278 24.12 161.09 24.588 159.938L22.608 159.29ZM32.292 171.89V173.654H27.108V171.89H32.292ZM25.056 176.048H27.108V175.328H32.292V175.994H34.452V170.234H25.056V176.048ZM25.344 169.352H34.128V167.678H25.344V169.352ZM34.2 165.122H25.344V166.778H34.2V165.122ZM23.922 162.512V164.24H35.442V162.512H23.922ZM39.492 162.998H50.4V165.248H52.686V161H46.08V159.272H43.812V161H37.314V165.248H39.492V162.998ZM49.59 166.274V164.33H40.32V166.274H49.59ZM48.852 173.852C48.204 173.852 48.096 173.78 48.096 173.204V169.586H53.028V167.57H36.99V169.586H41.256C40.986 171.818 40.338 173.366 36.486 174.194C36.954 174.662 37.512 175.544 37.728 176.102C42.246 174.914 43.236 172.682 43.596 169.586H45.936V173.24C45.936 175.184 46.44 175.796 48.528 175.796H50.832C52.542 175.796 53.082 175.112 53.316 172.502C52.758 172.358 51.822 172.016 51.39 171.692C51.318 173.564 51.228 173.852 50.634 173.852H48.852ZM68.652 160.37L68.13 160.514H55.854V162.62H66.294C65.394 163.592 64.278 164.6 63.18 165.374H61.974V173.528C61.974 173.834 61.848 173.924 61.452 173.924C61.038 173.942 59.562 173.942 58.302 173.87C58.626 174.464 59.022 175.418 59.148 176.066C60.876 176.066 62.154 176.03 63.054 175.706C63.936 175.382 64.242 174.806 64.242 173.564V167.174C66.42 165.806 68.742 163.556 70.326 161.612L68.652 160.37ZM78.678 160.226L75.78 160.19C75.942 160.91 76.014 161.774 76.014 162.62C76.014 164.168 75.834 168.902 75.834 171.314C75.834 174.392 77.742 175.688 80.694 175.688C84.798 175.688 87.354 173.276 88.506 171.548L86.868 169.568C85.572 171.53 83.682 173.24 80.712 173.24C79.308 173.24 78.228 172.646 78.228 170.828C78.228 168.596 78.372 164.564 78.444 162.62C78.48 161.9 78.57 160.982 78.678 160.226ZM95.112 172.466C95.112 171.854 95.814 171.35 97.092 171.35C97.596 171.35 98.082 171.404 98.568 171.476C98.586 171.8 98.586 172.052 98.586 172.25C98.586 173.294 97.956 173.564 97.002 173.564C95.76 173.564 95.112 173.15 95.112 172.466ZM100.746 159.938H98.316C98.388 160.28 98.424 160.838 98.424 161.18C98.424 161.396 98.424 161.684 98.424 162.026C98.19 162.026 97.956 162.026 97.722 162.026C96.624 162.026 94.572 161.846 93.276 161.63L93.33 163.682C94.518 163.844 96.606 164.006 97.74 164.006C97.956 164.006 98.172 164.006 98.406 164.006C98.388 164.618 98.388 165.266 98.388 165.86C98.1 165.86 97.812 165.86 97.524 165.86C96.57 165.86 94.356 165.734 93.186 165.518L93.204 167.642C94.392 167.786 96.444 167.876 97.488 167.876C97.812 167.876 98.118 167.876 98.424 167.876C98.442 168.416 98.46 168.992 98.496 169.55C98.136 169.514 97.758 169.496 97.38 169.496C94.608 169.496 92.934 170.774 92.934 172.592C92.934 174.5 94.446 175.598 97.326 175.598C99.702 175.598 100.872 174.41 100.872 172.88C100.872 172.682 100.872 172.466 100.854 172.214C102.294 172.862 103.518 173.816 104.49 174.716L105.786 172.7C104.742 171.836 103.014 170.63 100.746 169.982C100.692 169.262 100.656 168.524 100.62 167.84C102.348 167.786 103.752 167.66 105.372 167.48L105.39 165.356C103.932 165.554 102.402 165.698 100.584 165.788C100.584 165.23 100.584 164.564 100.584 163.934C102.33 163.844 103.968 163.682 105.156 163.538L105.174 161.468C103.59 161.738 102.096 161.882 100.62 161.954C100.62 161.666 100.62 161.396 100.638 161.216C100.656 160.748 100.692 160.298 100.746 159.938ZM114.678 160.226L111.78 160.19C111.942 160.91 112.014 161.774 112.014 162.62C112.014 164.168 111.834 168.902 111.834 171.314C111.834 174.392 113.742 175.688 116.694 175.688C120.798 175.688 123.354 173.276 124.506 171.548L122.868 169.568C121.572 171.53 119.682 173.24 116.712 173.24C115.308 173.24 114.228 172.646 114.228 170.828C114.228 168.596 114.372 164.564 114.444 162.62C114.48 161.9 114.57 160.982 114.678 160.226ZM136.566 170.108L134.424 169.892C134.28 170.612 134.1 171.476 134.1 172.304C134.1 174.122 135.738 175.166 138.762 175.166C140.202 175.166 141.426 175.04 142.434 174.914L142.524 172.61C141.228 172.844 139.986 172.988 138.78 172.988C136.854 172.988 136.314 172.394 136.314 171.602C136.314 171.206 136.422 170.612 136.566 170.108ZM134.532 160.136L131.778 159.92C131.832 160.334 131.796 161.072 131.724 161.738C131.688 162.026 131.634 162.368 131.562 162.764C131.004 162.8 130.464 162.818 129.942 162.818C129.204 162.818 128.592 162.782 127.674 162.674L127.728 164.924C128.358 164.96 129.042 164.996 129.906 164.996C130.284 164.996 130.68 164.978 131.094 164.96C130.986 165.482 130.842 165.986 130.716 166.472C130.05 168.992 128.682 172.772 127.602 174.572L130.104 175.418C131.112 173.276 132.318 169.604 132.966 167.084C133.164 166.346 133.344 165.554 133.506 164.78C134.712 164.636 135.936 164.438 137.016 164.186V161.936C136.026 162.17 135.018 162.368 134.01 162.512C134.064 162.26 134.118 162.026 134.154 161.828C134.226 161.432 134.388 160.622 134.532 160.136ZM135.594 165.572V167.678C136.728 167.552 137.844 167.498 139.068 167.498C140.166 167.498 141.264 167.606 142.164 167.714L142.218 165.554C141.156 165.446 140.076 165.392 139.05 165.392C137.898 165.392 136.602 165.482 135.594 165.572ZM152.082 169.874H153.918L154.404 163.718L154.494 161.036H151.506L151.596 163.718L152.082 169.874ZM153 174.662C153.9 174.662 154.584 174.014 154.584 173.078C154.584 172.124 153.9 171.476 153 171.476C152.1 171.476 151.416 172.124 151.416 173.078C151.416 174.014 152.082 174.662 153 174.662Z" fill="#00CEC3"/>
<path d="M52 5C52 2.23858 54.2386 0 57 0H103C105.761 0 108 2.23858 108 5V39C108 41.7614 105.761 44 103 44H84L80 51L76 44H57C54.2386 44 52 41.7614 52 39V5Z" fill="#00CEC3"/>
<path d="M99.417 123.496C95.6032 116.376 91.2556 106.598 91.2556 106.598L91.038 105.903C95.2405 104.794 99.3911 102.566 101.469 98.0632C107.019 86.0362 95.6136 77.7142 95.6136 77.7142C95.6136 77.7142 91.9086 69.6979 90.0586 70.0088C88.2087 70.3197 84.198 75.5585 84.198 75.5585H80.8091H77.4202C77.4202 75.5585 73.4146 70.3145 71.5647 70.0088C69.7148 69.6979 66.015 77.7142 66.015 77.7142C66.015 77.7142 54.6046 86.0362 60.1543 98.0632C62.1234 102.333 65.9632 104.561 69.9376 105.727L69.5179 107.105C69.5179 107.105 64.9682 118.734 60.9264 125.812C56.8846 132.89 59.916 143 65.4761 143C69.6785 143 76.7569 143 79.9748 143C81.0164 143 81.6537 143 81.6537 143C84.8665 143 91.95 143 96.1525 143C97.9557 143 99.4844 141.922 100.604 140.243C102.858 140.243 104.998 139.549 106.837 138.424C109.61 136.725 111.786 134.103 113.315 131.025C114.838 127.942 115.719 124.377 115.719 120.666C115.719 117.744 115.165 114.733 113.911 111.852C112.833 109.38 112.496 107.546 112.501 106.25C112.506 105.178 112.714 104.463 112.978 103.908C113.18 103.499 113.423 103.172 113.688 102.898C114.082 102.488 114.538 102.203 114.88 102.032C115.051 101.95 115.185 101.893 115.263 101.867L115.325 101.846V101.841C116.911 101.39 117.849 99.7577 117.429 98.1565C116.999 96.5398 115.346 95.5759 113.729 96.006C113.465 96.0838 111.807 96.5242 110.014 98.0529C109.123 98.8146 108.211 99.8717 107.537 101.255C106.858 102.639 106.444 104.333 106.444 106.25C106.444 108.582 107.034 111.225 108.361 114.272C109.257 116.324 109.667 118.506 109.667 120.666C109.677 124.32 108.464 127.9 106.656 130.403C105.76 131.652 104.723 132.626 103.687 133.258C103.262 133.517 102.837 133.704 102.417 133.854L102.557 133.02C102.552 131.895 102.428 130.745 102.169 129.615" fill="white"/>
<path d="M99.417 123.496C95.6032 116.376 91.2556 106.598 91.2556 106.598L91.038 105.903C95.2405 104.794 99.3911 102.566 101.469 98.0632C107.019 86.0362 95.6136 77.7142 95.6136 77.7142C95.6136 77.7142 91.9086 69.6979 90.0586 70.0088C88.2087 70.3197 84.198 75.5585 84.198 75.5585H80.8091H77.4202C77.4202 75.5585 73.4146 70.3145 71.5647 70.0088C69.7148 69.6979 66.015 77.7142 66.015 77.7142C66.015 77.7142 54.6046 86.0362 60.1543 98.0632C62.1234 102.333 65.9632 104.561 69.9376 105.727L69.5179 107.105C69.5179 107.105 64.9682 118.734 60.9264 125.812C56.8846 132.89 59.916 143 65.4761 143C69.6785 143 76.7569 143 79.9748 143C81.0164 143 81.6537 143 81.6537 143C84.8665 143 91.95 143 96.1525 143C97.9557 143 99.4844 141.922 100.604 140.243C102.858 140.243 104.998 139.549 106.837 138.424C109.61 136.725 111.786 134.103 113.315 131.025C114.838 127.942 115.719 124.377 115.719 120.666C115.719 117.744 115.165 114.733 113.911 111.852C112.833 109.38 112.496 107.546 112.501 106.25C112.506 105.178 112.714 104.463 112.978 103.908C113.18 103.499 113.423 103.172 113.688 102.898C114.082 102.488 114.538 102.203 114.88 102.032C115.051 101.95 115.185 101.893 115.263 101.867L115.325 101.846V101.841C116.911 101.39 117.849 99.7577 117.429 98.1565C116.999 96.5398 115.346 95.5759 113.729 96.006C113.465 96.0838 111.807 96.5242 110.014 98.0529C109.123 98.8146 108.211 99.8717 107.537 101.255C106.858 102.639 106.444 104.333 106.444 106.25C106.444 108.582 107.034 111.225 108.361 114.272C109.257 116.324 109.667 118.506 109.667 120.666C109.677 124.32 108.464 127.9 106.656 130.403C105.76 131.652 104.723 132.626 103.687 133.258C103.262 133.517 102.837 133.704 102.417 133.854L102.557 133.02C102.552 131.895 102.428 130.745 102.169 129.615" stroke="#00CEC3" stroke-width="4" stroke-miterlimit="10" stroke-linecap="round" stroke-linejoin="round"/>
<circle cx="77.736" cy="88.9986" r="1.3043" fill="#00CEC3"/>
<circle cx="85.5618" cy="88.9986" r="1.3043" fill="#00CEC3"/>
<path d="M85.4103 12C82.2054 12 79.6069 14.5985 79.6069 17.8042C79.6069 14.5985 77.0083 12 73.8034 12C70.5985 12 68 14.5985 68 17.8041C68 20.8185 69.4197 26.5723 77.9095 30.3284C78.4465 30.5664 79.5283 30.9844 79.5283 30.9844C79.5531 30.9943 79.58 31 79.6069 31C79.6338 31 79.6607 30.9943 79.6855 30.9844C79.6855 30.9844 80.7672 30.5664 81.3042 30.3284C89.7941 26.5723 91.2137 20.8185 91.2137 17.8041C91.2137 14.5985 88.6153 12 85.4103 12Z" fill="white"/>
</svg>
